<svg viewBox="0 0 96 96" xmlns="http://www.w3.org/2000/svg" xmlns:xlink="http://www.w3.org/1999/xlink" id="Icons_HoldGesture_M" overflow="hidden"><style>
.MsftOfcThm_Background1_Fill_v2 {
 fill:#3F3F3F; 
}
</style>
<g id="Icons"><path d="M69.176 42.978C67.7465 42.6375 66.2437 42.7952 64.916 43.425 64.2048 39.9283 60.7936 37.6702 57.2969 38.3813 56.5867 38.5258 55.9059 38.7887 55.283 39.159 53.7185 35.9507 49.8494 34.6182 46.6411 36.1827 46.0413 36.4752 45.4904 36.8589 45.008 37.32L45.008 24.774C47.1951 22.8942 48.2732 20.0293 47.868 17.174 47.2215 12.5243 42.9282 9.27905 38.2785 9.92551 34.0702 10.5106 30.9403 14.1132 30.949 18.362 30.95 20.8242 32.0242 23.1636 33.891 24.769L33.891 53.211C33.891 53.261 33.882 53.262 33.871 53.211L32.158 45.523C31.8858 44.1831 31.1505 42.9819 30.081 42.13 27.6539 40.258 24.1687 40.708 22.2967 43.1351 21.2899 44.4405 20.9155 46.1261 21.275 47.735L26.739 72.28C27.0209 73.5504 27.7427 74.6803 28.777 75.47L38.45 82.9 38.45 89.259 40.45 89.259 40.45 82.4C40.4499 82.0893 40.3055 81.7962 40.059 81.607L29.992 73.88C29.3314 73.3779 28.8706 72.6573 28.692 71.847L23.227 47.3C22.7993 45.3945 23.9972 43.5031 25.9027 43.0754 25.9108 43.0736 25.9189 43.0718 25.927 43.07 27.0753 42.8104 28.2775 43.1375 29.136 43.943 29.6777 44.4671 30.0468 45.1438 30.194 45.883L33.91 62.556C34.0306 63.0978 34.5675 63.4393 35.1093 63.3187 35.5685 63.2165 35.8954 62.8094 35.896 62.339L35.896 19.45C35.9056 17.4844 37.5068 15.8988 39.4723 15.9084 39.5333 15.9087 39.5942 15.9106 39.655 15.914 41.5838 16.0825 43.0519 17.7172 43.013 19.653L43.013 41.984C43.0307 42.5363 43.4927 42.9697 44.045 42.952 44.5973 42.9343 45.0307 42.4723 45.013 41.92 44.8938 40.9569 45.184 39.988 45.813 39.249 48.894 36 53.091 37.8 53.822 41 53.945 41.5384 54.4812 41.8752 55.0196 41.7521 55.1956 41.7119 55.3575 41.6248 55.488 41.5 57.261 39.7901 60.0845 39.8413 61.7944 41.6144 62.595 42.4446 63.0429 43.5526 63.044 44.706 63.0443 44.8373 63.0366 44.9686 63.021 45.099 62.9549 45.6473 63.3458 46.1454 63.8941 46.2115 64.1817 46.2462 64.4702 46.1545 64.685 45.96 65.9584 44.8028 67.7839 44.4814 69.376 45.134 71.0807 45.8682 72.1733 47.5592 72.142 49.415L72.142 65.624C72.142 72.316 69.866 75.234 67.857 77.809 66.314 79.788 64.857 81.656 64.857 84.709L64.857 89.25 66.857 89.25 66.857 84.713C66.857 82.344 67.995 80.886 69.435 79.04 71.535 76.351 74.143 73.004 74.143 65.624L74.143 49.513C74.19 46.4507 72.1391 43.7524 69.176 42.978Z" class="MsftOfcThm_Background1_Fill_v2" stroke="none" stroke-width="1" stroke-linecap="butt" stroke-linejoin="miter" stroke-miterlimit="4" fill="#3F3F3F" fill-opacity="1"/><path d="M23.517 31.807C24.3106 27.1802 21.2032 22.786 16.5764 21.9923 11.9495 21.1987 7.55535 24.3061 6.76171 28.933 5.96806 33.5598 9.07548 37.954 13.7023 38.7476 14.6546 38.911 15.6278 38.9108 16.58 38.747 20.1268 38.1325 22.904 35.3541 23.517 31.807ZM16.625 36.7C13.1271 37.522 9.62515 35.3529 8.8031 31.855 7.98106 28.3571 10.1502 24.8552 13.6481 24.0331 17.146 23.2111 20.648 25.3802 21.47 28.8781 21.7001 29.8571 21.7001 30.876 21.47 31.855 20.9028 34.2572 19.0272 36.1328 16.625 36.7Z" class="MsftOfcThm_Background1_Fill_v2" stroke="none" stroke-width="1" stroke-linecap="butt" stroke-linejoin="miter" stroke-miterlimit="4" fill="#3F3F3F" fill-opacity="1"/><path d="M16.136 25.867 14.136 25.867 14.136 31.867 19.136 31.867 19.136 29.867 16.136 29.867 16.136 25.867Z" class="MsftOfcThm_Background1_Fill_v2" stroke="none" stroke-width="1" stroke-linecap="butt" stroke-linejoin="miter" stroke-miterlimit="4" fill="#3F3F3F" fill-opacity="1"/></g></svg>