<svg viewBox="0 0 96 96" xmlns="http://www.w3.org/2000/svg" xmlns:xlink="http://www.w3.org/1999/xlink" id="Icons_Idea_M" overflow="hidden"><style>
.MsftOfcThm_Background1_Fill_v2 {
 fill:#3F3F3F; 
}
</style>
<g id="Icons"><path d="M74.1 37.3 74.1 36.8C74.7 20.2 61.7 6.3 45.1 5.6 44.7 5.6 44.4 5.6 44 5.6 27.8 5.6 14.6 18.4 14 34.6 14 35.3 14 36.1 14 36.8 14 46.3 18.3 55.2 25.8 61L25.8 86.3 57.4 86.3 57.4 74.3 62.3 74.3C68.8 74.3 74.1 69 74.1 62.5L74.1 62.5C74.1 62.4 74.1 62.4 74.1 62.3L74.1 56.3 78.5 56.3C81.1 56 83.4 53 81 49.3L74.1 37.3ZM79.8 53.3C79.5 53.9 79 54.2 78.4 54.4L72.1 54.4 72.1 62.6C72.1 68 67.7 72.4 62.3 72.4L55.4 72.4 55.4 84.4 27.8 84.4 27.8 60 27 59.4C20 54 16 45.6 16 36.8L16 36.8 16 36.8C16 36.1 16 35.4 16 34.8 16.5 19.6 28.9 7.6 44 7.6 44.3 7.6 44.7 7.6 45 7.6 60.5 8.2 72.6 21.2 72 36.7L72 37.8 72.3 38.3 79.2 50.3 79.2 50.3 79.2 50.3C80 51.2 80.2 52.3 79.8 53.3 79.8 53.3 79.8 53.3 79.8 53.3Z" class="MsftOfcThm_Background1_Fill_v2" stroke="none" stroke-width="1" stroke-linecap="butt" stroke-linejoin="miter" stroke-miterlimit="4" fill="#3F3F3F" fill-opacity="1"/><path d="M42.8 55.6 42.8 55.6C44.5 55.6 45.9 54.3 46 52.6L39.6 52.6C39.7 54.3 41.1 55.6 42.8 55.6Z" class="MsftOfcThm_Background1_Fill_v2" stroke="none" stroke-width="1" stroke-linecap="butt" stroke-linejoin="miter" stroke-miterlimit="4" fill="#3F3F3F" fill-opacity="1"/><path d="M42.8 19C35.8 19 30.1 24.7 30 31.7L30 32.1C30 33.6 30.3 35.1 30.9 36.5 31.4 37.8 32.2 39.1 33.1 40.1 34.3 41.6 35.3 43.2 36.1 45 36.3 45.3 36.6 45.5 37 45.5L48.6 45.5C49 45.5 49.3 45.3 49.5 45 50.3 43.3 51.3 41.6 52.5 40.1 53.5 39 54.2 37.8 54.7 36.5 55.2 35.1 55.5 33.6 55.6 32.1L55.6 31.7C55.4 24.6 49.8 19 42.8 19ZM53.6 32C53.6 33.3 53.3 34.5 52.8 35.7 52.4 36.8 51.7 37.8 50.9 38.7L50.9 38.7 50.9 38.7C49.8 40.1 48.8 41.7 47.9 43.4L37.6 43.4C36.8 41.8 35.8 40.2 34.6 38.7L34.6 38.7 34.6 38.7C33.8 37.8 33.2 36.8 32.7 35.7 32.3 34.6 32 33.3 32 32L32 31.6C32 25.6 36.8 20.8 42.8 20.8 48.8 20.8 53.6 25.6 53.6 31.6L53.6 32Z" class="MsftOfcThm_Background1_Fill_v2" stroke="none" stroke-width="1" stroke-linecap="butt" stroke-linejoin="miter" stroke-miterlimit="4" fill="#3F3F3F" fill-opacity="1"/><path d="M47.7 48.1 38.1 48.1C37.5 48.1 37.1 48.5 37.1 49.1 37.1 49.7 37.5 50.1 38.1 50.1L47.7 50.1C48.3 50.1 48.7 49.7 48.7 49.1 48.7 48.5 48.2 48.1 47.7 48.1Z" class="MsftOfcThm_Background1_Fill_v2" stroke="none" stroke-width="1" stroke-linecap="butt" stroke-linejoin="miter" stroke-miterlimit="4" fill="#3F3F3F" fill-opacity="1"/></g></svg>