<svg viewBox="0 0 96 96" xmlns="http://www.w3.org/2000/svg" xmlns:xlink="http://www.w3.org/1999/xlink" id="Icons_TiredFace_Outline" overflow="hidden"><style>
.MsftOfcThm_Background1_Fill_v2 {
 fill:#3F3F3F; 
}
</style>
<g id="Icons_TiredFaceWhite"><path d="M69.014 50.271C69.9795 50.8075 70.3273 52.0251 69.7908 52.9907 69.2543 53.9562 68.0367 54.304 67.0711 53.7675 67.0471 53.7541 67.0234 53.7403 67 53.726L55 46.726C54.0459 46.1694 53.7237 44.9447 54.2803 43.9907 54.4542 43.6927 54.7021 43.4448 55 43.271L67 36.271C67.9541 35.7143 69.1788 36.0364 69.7355 36.9905 70.2922 37.9446 69.9701 39.1693 69.016 39.726L59.976 45Z" class="MsftOfcThm_Background1_Fill_v2" stroke="none" stroke-width="1" stroke-linecap="butt" stroke-linejoin="miter" stroke-miterlimit="4" fill="#3F3F3F" fill-opacity="1"/><path d="M48.013 14C66.7907 14 82.013 29.2223 82.013 48 82.013 66.7777 66.7907 82 48.013 82 29.2353 82 14.013 66.7777 14.013 48 14.0339 29.231 29.244 14.0209 48.013 14M48.013 10C27.0262 10 10.013 27.0132 10.013 48 10.013 68.9868 27.0262 86 48.013 86 68.9998 86 86.013 68.9868 86.013 48 86.013 27.0132 68.9998 10 48.013 10Z" class="MsftOfcThm_Background1_Fill_v2" stroke="none" stroke-width="1" stroke-linecap="butt" stroke-linejoin="miter" stroke-miterlimit="4" fill="#3F3F3F" fill-opacity="1"/><path d="M25.088 29.43C25.4012 28.3738 26.5096 27.7697 27.567 28.079 31.5571 29.0852 35.7749 27.7768 38.495 24.689 39.2068 23.8444 40.4686 23.7368 41.3132 24.4486 42.1578 25.1605 42.2654 26.4222 41.5536 27.2668 41.5416 27.2811 41.5294 27.2951 41.517 27.309 38.7281 30.5926 34.6187 32.4595 30.311 32.4 29.0039 32.4125 27.701 32.2501 26.437 31.917 25.3779 31.6032 24.7738 30.4902 25.0876 29.4312 25.0878 29.4308 25.0879 29.4304 25.088 29.43Z" class="MsftOfcThm_Background1_Fill_v2" stroke="none" stroke-width="1" stroke-linecap="butt" stroke-linejoin="miter" stroke-miterlimit="4" fill="#3F3F3F" fill-opacity="1"/><path d="M69.575 31.916C68.3107 32.2494 67.0075 32.4122 65.7 32.4 61.3942 32.4582 57.2873 30.5914 54.5 27.309 53.7882 26.4644 53.8958 25.2027 54.7404 24.4908 55.5683 23.793 56.8013 23.8808 57.522 24.689 60.2428 27.777 64.4615 29.085 68.452 28.078 69.5118 27.7665 70.6235 28.3732 70.935 29.433 71.2465 30.4928 70.6398 31.6045 69.58 31.916Z" class="MsftOfcThm_Background1_Fill_v2" stroke="none" stroke-width="1" stroke-linecap="butt" stroke-linejoin="miter" stroke-miterlimit="4" fill="#3F3F3F" fill-opacity="1"/><path d="M28.008 54C26.9034 54.0015 26.0068 53.1073 26.0053 52.0027 26.0043 51.2894 26.3833 50.6295 27 50.271L36.036 45 27 39.726C26.0459 39.1693 25.7238 37.9446 26.2805 36.9905 26.8372 36.0364 28.0619 35.7143 29.016 36.271L41.016 43.271C41.9701 43.8276 42.2923 45.0523 41.7357 46.0063 41.5618 46.3043 41.3139 46.5522 41.016 46.726L29.016 53.726C28.7103 53.9053 28.3624 53.9999 28.008 54Z" class="MsftOfcThm_Background1_Fill_v2" stroke="none" stroke-width="1" stroke-linecap="butt" stroke-linejoin="miter" stroke-miterlimit="4" fill="#3F3F3F" fill-opacity="1"/><path d="M32.144 71C33.2415 62.2397 41.2329 56.0277 49.9932 57.1252 57.2464 58.034 62.9593 63.7468 63.868 71Z" class="MsftOfcThm_Background1_Fill_v2" stroke="none" stroke-width="1" stroke-linecap="butt" stroke-linejoin="miter" stroke-miterlimit="4" fill="#3F3F3F" fill-opacity="1"/></g></svg>